#!OML:ASF H:\BabyWalks\Project 1\Capture day 1\Session 1\baby.ASF
:FULLY-SPECIFIED
:DEGREES
588
root 37.2015 17.5448 0.252569 -33.2682 76.7469 -32.9946
lowerback 22.9214 1.65055 -2.69721
upperback 6.7522 1.82372 -2.40184
thorax -5.36042 1.09226 -1.56397
lowerneck 1.79167 6.10996 5.79085
upperneck -11.3744 8.30629 -4.14437
head -3.59429 4.13709 -2.67245
rclavicle -8.74653e-015 3.18055e-015
rhumerus -47.4804 6.99716 -84.3779
rradius 51.2452
rwrist -1.34848
rhand -3.86501 -18.9917
rfingers 7.12502
rthumb 21.8836 -47.7742
lclavicle -8.74653e-015 3.18055e-015
lhumerus -35.9427 -10.6835 73.2593
lradius 60.4216
lwrist 6.39311
lhand -9.42046 4.99303
lfingers 7.12502
lthumb 16.5417 34.308
rfemur -15.2363 7.00722 24.6992
rtibia 35.8312
rfoot -19.5756 9.27791
rtoes -10.9592
lfemur -17.4713 -2.53675 -8.00223
ltibia 34.1751
lfoot -16.8214 -2.22706
ltoes -6.72503
589
root 37.2643 17.5551 0.261406 -33.3091 76.991 -33.1251
lowerback 22.8803 1.6278 -2.6874
upperback 6.72194 1.79743 -2.36577
thorax -5.37384 1.07846 -1.52268
lowerneck 1.71243 5.98536 5.73044
upperneck -11.2782 8.14569 -3.98602
head -3.56316 4.05335 -2.59791
rclavicle -7.15625e-015 -9.54166e-015
rhumerus -47.4197 6.92135 -84.3112
rradius 51.1168
rwrist -1.54824
rhand -3.63888 -19.1168
rfingers 7.12502
rthumb 22.1007 -47.8737
lclavicle -7.15625e-015 -9.54166e-015
lhumerus -35.9363 -11.008 73.5759
lradius 60.8129
lwrist 6.53104
lhand -8.91636 5.03441
lfingers 7.12502
lthumb 17.027 34.3082
rfemur -15.6043 6.66911 24.7995
rtibia 34.5958
rfoot -19.7426 8.733
rtoes -9.65497
lfemur -17.2148 -2.82052 -8.16018
ltibia 33.8593
lfoot -16.9549 -2.09253
ltoes -6.59898
590
root 37.3258 17.5618 0.271288 -33.3768 77.2647 -33.2605
lowerback 22.8556 1.59787 -2.66746
upperback 6.69947 1.76436 -2.33361
thorax -5.38667 1.06178 -1.49
lowerneck 1.62337 5.85172 5.66028
upperneck -11.1774 7.97255 -3.81993
head -3.5295 3.96356 -2.51842
rclavicle 2.14687e-014 0
rhumerus -47.3547 6.83739 -84.2637
rradius 50.9941
rwrist -1.71681
rhand -3.55597 -19.1964
rfingers 7.12502
rthumb 22.1803 -47.9439
lclavicle 2.14687e-014 0
lhumerus -35.9324 -11.2715 73.8646
lradius 61.1673
lwrist 6.68396
lhand -8.37904 5.1501
lfingers 7.12502
lthumb 17.5441 34.3785
rfemur -15.9345 6.43219 24.8709
rtibia 33.3794
rfoot -19.8337 8.34896
rtoes -8.39997
lfemur -16.9701 -3.07299 -8.33324
ltibia 33.5876
lfoot -17.1216 -2.01415
ltoes -6.45944
591
root 37.3859 17.5651 0.282209 -33.4743 77.5643 -33.4058
lowerback 22.8438 1.56174 -2.63481
upperback 6.68346 1.72632 -2.30498
thorax -5.39861 1.04301 -1.46738
lowerneck 1.54486 5.70968 5.58537
upperneck -11.0896 7.78831 -3.65666
head -3.50271 3.86853 -2.44016
rclavicle 6.36111e-015 1.43125e-014
rhumerus -47.2904 6.74438 -84.2341
rradius 50.8834
rwrist -1.84378
rhand -3.59909 -19.2327
rfingers 7.12502
rthumb 22.1389 -47.9851
lclavicle 6.36111e-015 1.43125e-014
lhumerus -35.9355 -11.4737 74.1249
lradius 61.4921
lwrist 6.86218
lhand -7.81809 5.32153
lfingers 7.12502
lthumb 18.0839 34.5009
rfemur -16.2278 6.31214 24.9097
rtibia 32.1935
rfoot -19.8483 8.11702
rtoes -7.27332
lfemur -16.7425 -3.28727 -8.51825
ltibia 33.3668
lfoot -17.3179 -1.99558
ltoes -6.32156
592
root 37.4447 17.5651 0.294161 -33.5717 77.8871 -33.5291
lowerback 22.843 1.52276 -2.59634
upperback 6.67787 1.68664 -2.2795
thorax -5.40449 1.02389 -1.45118
lowerneck 1.47478 5.56222 5.50982
upperneck -11.0237 7.59634 -3.50683
head -3.48463 3.77022 -2.36759
rclavicle 6.36111e-015 -3.02153e-014
rhumerus -47.2234 6.6518 -84.2222
rradius 50.7879
rwrist -1.93406
rhand -3.75553 -19.2328
rfingers 7.12502
rthumb 21.9887 -48.0029
lclavicle 6.36111e-015 -3.02153e-014
lhumerus -35.9386 -11.6171 74.3605
lradius 61.7742
lwrist 7.04936
lhand -7.27266 5.50085
lfingers 7.12502
lthumb 18.6086 34.6308
rfemur -16.4809 6.31387 24.9058
rtibia 31.0516
rfoot -19.7654 8.02151
rtoes -6.27482
lfemur -16.5335 -3.45198 -8.72118
ltibia 33.2047
lfoot -17.5395 -2.04123
ltoes -6.20412
593
root 37.5018 17.562 0.307307 -33.687 78.2355 -33.6511
lowerback 22.8512 1.47844 -2.55252
upperback 6.68311 1.64219 -2.25551
thorax -5.40294 1.00285 -1.43841
lowerneck 1.42712 5.41004 5.43629
upperneck -10.9953 7.39796 -3.37848
head -3.48292 3.66938 -2.30497
rclavicle -3.18055e-015 -1.43125e-014
rhumerus -47.1522 6.55966 -84.2266
rradius 50.713
rwrist -1.97591
rhand -3.9962 -19.2097
rfingers 7.12502
rthumb 21.7576 -48.0069
lclavicle -3.18055e-015 -1.43125e-014
lhumerus -35.9404 -11.6966 74.5697
lradius 62.0232
lwrist 7.24271
lhand -6.73686 5.69466
lfingers 7.12502
lthumb 19.1239 34.7745
rfemur -16.6952 6.44727 24.8581
rtibia 29.9677
rfoot -19.5512 8.02198
rtoes -5.35964
lfemur -16.3517 -3.56427 -8.93789
ltibia 33.1075
lfoot -17.7816 -2.15821
ltoes -6.11453
594
root 37.5574 17.5557 0.321542 -33.8322 78.6106 -33.7841
lowerback 22.8654 1.42844 -2.50106
upperback 6.70142 1.59349 -2.23155
thorax -5.39008 0.980193 -1.42877
lowerneck 1.39874 5.25785 5.37144
upperneck -11.0035 7.19873 -3.2822
head -3.49593 3.56892 -2.25673
rclavicle 3.26007e-014 -1.43125e-014
rhumerus -47.075 6.46316 -84.244
rradius 50.661
rwrist -1.97142
rhand -4.32119 -19.1672
rfingers 7.12502
rthumb 21.4455 -48.0002
lclavicle 3.26007e-014 -1.43125e-014
lhumerus -35.9361 -11.7174 74.7576
lradius 62.2286
lwrist 7.42099
lhand -6.23837 5.88651
lfingers 7.12502
lthumb 19.6032 34.9182
rfemur -16.8677 6.7027 24.7659
rtibia 28.9554
rfoot -19.1775 8.0777
rtoes -4.47054
lfemur -16.2015 -3.62556 -9.16726
ltibia 33.0807
lfoot -18.0404 -2.34697
ltoes -6.04706
